<!-- Generated by IcoMoon.io -->
<svg version="1.1" xmlns="http://www.w3.org/2000/svg" width="40" height="32" viewBox="0 0 40 32">
<title>price-tags</title>
<path fill="#d2d2d2" d="M1.518-0.193h12.145c0.835 0 2.001 0.483 2.592 1.074l15.058 15.058c0.59 0.59 0.59 1.557 0 2.147l-13.034 13.034c-0.59 0.59-1.557 0.59-2.147 0l-15.058-15.058c-0.59-0.59-1.073-1.757-1.073-2.592v-12.145c0-0.835 0.683-1.518 1.518-1.518zM9.109 11.952c1.677 0 3.036-1.359 3.036-3.036s-1.359-3.036-3.036-3.036-3.036 1.359-3.036 3.036 1.359 3.036 3.036 3.036z"></path>
<path fill="#d2d2d2" d="M36.435 17.012l-17.205-17.205h2.53c0.835 0 2.001 0.483 2.592 1.074l15.058 15.058c0.59 0.59 0.59 1.557 0 2.147l-13.034 13.034c-0.59 0.59-1.557 0.59-2.147 0l-0.951-0.951 13.157-13.157z"></path>
</svg>
